<?xml version="1.0" encoding="utf-8"?>
<!-- Generator: Adobe Illustrator 17.1.0, SVG Export Plug-In . SVG Version: 6.00 Build 0)  -->
<!DOCTYPE svg PUBLIC "-//W3C//DTD SVG 1.1//EN" "http://www.w3.org/Graphics/SVG/1.1/DTD/svg11.dtd">
<svg version="1.1" xmlns="http://www.w3.org/2000/svg" xmlns:xlink="http://www.w3.org/1999/xlink" x="0px" y="0px"
	 viewBox="0 0 55.213 72" enable-background="new 0 0 55.213 72" xml:space="preserve">
<g id="Layer_2_1_">
	<rect x="0" fill="#FFFFFF" width="55.213" height="72"/>
	<path fill="none" stroke="#000000" stroke-miterlimit="10" d="M38.758,36.794"/>
	<path fill="none" stroke="#000000" stroke-miterlimit="10" d="M38.758,36.794c0,0-1.947,13.684-11.886,14.806
		c0,0-2.33-0.017-5.864-1.632"/>
</g>
<g id="Layer_1">
	<g id="Layer_1_1_">
		<g id="Layer_2">
			<path fill="#FFFFFF" stroke="#010101" stroke-miterlimit="10" d="M38.758,31.912v4.882c0,0,9.938,3.375,13.563-4.5
				c0,0,3.125-12.875-2.5-17.25c0,0-3.75-6.5-11.25-6.75c0,0-4.5-9.5-14.812-4.375c0,0-12.938-5.5-17.438,4.375
				c0,0-11,7.25,2.625,15.25"/>
		</g>
		<g id="Layer_3">
			<path fill="#FFFFFF" stroke="#010101" stroke-miterlimit="10" d="M9.133,34.412c0,0,6.625-9.875,25.875-6.625
				c0,0,1.875,0.125,3.75,4.125v-8.375c0,0-0.5-8-14.812-5.875c0,0-10.938,0.25-14.812,6.125L9.133,34.412L9.133,34.412z"/>
			<ellipse fill="#010101" cx="21.008" cy="33.912" rx="1.812" ry="1.5"/>
			<line fill="none" stroke="#010101" stroke-miterlimit="10" x1="19.946" y1="33.912" x2="16.946" y2="32.412"/>
			<line fill="none" stroke="#010101" stroke-miterlimit="10" x1="17.57" y1="34.417" x2="21.008" y2="34.417"/>
			<ellipse fill="#010101" cx="31.258" cy="33.912" rx="1.812" ry="1.5"/>
			<line fill="none" stroke="#010101" stroke-miterlimit="10" x1="32.32" y1="33.912" x2="35.32" y2="32.412"/>
			<line fill="none" stroke="#010101" stroke-miterlimit="10" x1="34.696" y1="34.417" x2="31.258" y2="34.417"/>
			<path fill="#BE202E" d="M19.946,41.815c0,0,1.412,0.565,2.937,0.904c0,0,2.428-1.13,3.558,0c0,0,1.666-1.186,2.668,0
				c0,0,0.946,0.395,1.85,0C30.958,42.719,26.779,47.294,19.946,41.815z"/>
			<path fill="none" stroke="#010101" stroke-miterlimit="10" d="M13.475,30.646c0,0-5.342,11.016,2.47,18.516
				c0,0,7.938,4.5,9.438,9.25"/>
			<path fill="none" stroke="#010101" stroke-miterlimit="10" d="M11.034,32.412c0,0-8.526,14.625,2.974,19.25
				c0,0,11.875,2.875,11.375,13"/>
			<path fill="none" stroke="#010101" stroke-miterlimit="10" d="M9.525,33.912c0,0-10.892,18.375,4.733,22.75
				c0,0,11.75,2.125,11.125,12.625"/>
		</g>
	</g>
</g>
</svg>
