<?xml version="1.0" encoding="utf-8"?>
<!-- Generator: Adobe Illustrator 17.1.0, SVG Export Plug-In . SVG Version: 6.00 Build 0)  -->
<!DOCTYPE svg PUBLIC "-//W3C//DTD SVG 1.1//EN" "http://www.w3.org/Graphics/SVG/1.1/DTD/svg11.dtd">
<svg version="1.1" id="Layer_1" xmlns="http://www.w3.org/2000/svg" xmlns:xlink="http://www.w3.org/1999/xlink" x="0px" y="0px"
	 viewBox="-220 20 292 78" enable-background="new -220 20 292 78" xml:space="preserve">
<g>
	<title>Layer 1</title>
	<g id="layer1">
		<g id="g3652">
			<path id="path2847-5" stroke="#000000" stroke-width="3" stroke-linecap="round" stroke-linejoin="round" d="M-120.9,54.1
				c1.8,3.2,5.2,4.5,9.3,4.5l156.4-4.2c7.8,0,11.6,4.3,11.6,8.6c0,4.2-3.8,8.6-11.6,8.6c-52.2-1.5-104.2-3-156.4-4.3
				c-4.3,0-7.6,1.5-9.1,4.5c-6,11-23.6,16.1-44.6,16.1c-25.8,0-46.7-11.1-46.7-24.9s20.9-24.9,46.7-24.9
				C-144.5,38.1-127,43.3-120.9,54.1L-120.9,54.1z"/>
		</g>
	</g>
</g>
</svg>
